<svg aria-roledescription="flowchart-v2" role="graphics-document document" viewBox="-8 -8 357.828125 1176.218994140625" style="max-width: 357.828125px;" xmlns="http://www.w3.org/2000/svg" width="100%" id="mermaid-svg-1771076898135-kqv7cryj5"><style>#mermaid-svg-1771076898135-kqv7cryj5{font-family:"trebuchet ms",verdana,arial,sans-serif;font-size:16px;fill:rgba(228, 228, 228, 0.92);}#mermaid-svg-1771076898135-kqv7cryj5 .error-icon{fill:#141414;}#mermaid-svg-1771076898135-kqv7cryj5 .error-text{fill:#e34671;stroke:#e34671;}#mermaid-svg-1771076898135-kqv7cryj5 .edge-thickness-normal{stroke-width:2px;}#mermaid-svg-1771076898135-kqv7cryj5 .edge-thickness-thick{stroke-width:3.5px;}#mermaid-svg-1771076898135-kqv7cryj5 .edge-pattern-solid{stroke-dasharray:0;}#mermaid-svg-1771076898135-kqv7cryj5 .edge-pattern-dashed{stroke-dasharray:3;}#mermaid-svg-1771076898135-kqv7cryj5 .edge-pattern-dotted{stroke-dasharray:2;}#mermaid-svg-1771076898135-kqv7cryj5 .marker{fill:rgba(228, 228, 228, 0.92);stroke:rgba(228, 228, 228, 0.92);}#mermaid-svg-1771076898135-kqv7cryj5 .marker.cross{stroke:rgba(228, 228, 228, 0.92);}#mermaid-svg-1771076898135-kqv7cryj5 svg{font-family:"trebuchet ms",verdana,arial,sans-serif;font-size:16px;}#mermaid-svg-1771076898135-kqv7cryj5 .label{font-family:"trebuchet ms",verdana,arial,sans-serif;color:rgba(228, 228, 228, 0.92);}#mermaid-svg-1771076898135-kqv7cryj5 .cluster-label text{fill:rgba(228, 228, 228, 0.92);}#mermaid-svg-1771076898135-kqv7cryj5 .cluster-label span,#mermaid-svg-1771076898135-kqv7cryj5 p{color:rgba(228, 228, 228, 0.92);}#mermaid-svg-1771076898135-kqv7cryj5 .label text,#mermaid-svg-1771076898135-kqv7cryj5 span,#mermaid-svg-1771076898135-kqv7cryj5 p{fill:rgba(228, 228, 228, 0.92);color:rgba(228, 228, 228, 0.92);}#mermaid-svg-1771076898135-kqv7cryj5 .node rect,#mermaid-svg-1771076898135-kqv7cryj5 .node circle,#mermaid-svg-1771076898135-kqv7cryj5 .node ellipse,#mermaid-svg-1771076898135-kqv7cryj5 .node polygon,#mermaid-svg-1771076898135-kqv7cryj5 .node path{fill:#181818;stroke:#454545;stroke-width:1px;}#mermaid-svg-1771076898135-kqv7cryj5 .flowchart-label text{text-anchor:middle;}#mermaid-svg-1771076898135-kqv7cryj5 .node .label{text-align:center;}#mermaid-svg-1771076898135-kqv7cryj5 .node.clickable{cursor:pointer;}#mermaid-svg-1771076898135-kqv7cryj5 .arrowheadPath{fill:#e7e7e7;}#mermaid-svg-1771076898135-kqv7cryj5 .edgePath .path{stroke:rgba(228, 228, 228, 0.92);stroke-width:2.0px;}#mermaid-svg-1771076898135-kqv7cryj5 .flowchart-link{stroke:rgba(228, 228, 228, 0.92);fill:none;}#mermaid-svg-1771076898135-kqv7cryj5 .edgeLabel{background-color:#18181899;text-align:center;}#mermaid-svg-1771076898135-kqv7cryj5 .edgeLabel rect{opacity:0.5;background-color:#18181899;fill:#18181899;}#mermaid-svg-1771076898135-kqv7cryj5 .labelBkg{background-color:rgba(24, 24, 24, 0.5);}#mermaid-svg-1771076898135-kqv7cryj5 .cluster rect{fill:rgba(64, 64, 64, 0.47);stroke:#454545;stroke-width:1px;}#mermaid-svg-1771076898135-kqv7cryj5 .cluster text{fill:rgba(228, 228, 228, 0.92);}#mermaid-svg-1771076898135-kqv7cryj5 .cluster span,#mermaid-svg-1771076898135-kqv7cryj5 p{color:rgba(228, 228, 228, 0.92);}#mermaid-svg-1771076898135-kqv7cryj5 div.mermaidTooltip{position:absolute;text-align:center;max-width:200px;padding:2px;font-family:"trebuchet ms",verdana,arial,sans-serif;font-size:12px;background:rgba(64, 64, 64, 0.6);border:1px solid #454545;border-radius:2px;pointer-events:none;z-index:100;}#mermaid-svg-1771076898135-kqv7cryj5 .flowchartTitleText{text-anchor:middle;font-size:18px;fill:rgba(228, 228, 228, 0.92);}#mermaid-svg-1771076898135-kqv7cryj5 :root{--mermaid-font-family:"trebuchet ms",verdana,arial,sans-serif;}</style><g><marker orient="auto" markerHeight="12" markerWidth="12" markerUnits="userSpaceOnUse" refY="5" refX="6" viewBox="0 0 10 10" class="marker flowchart" id="mermaid-svg-1771076898135-kqv7cryj5_flowchart-pointEnd"><path style="stroke-width: 1; stroke-dasharray: 1, 0;" class="arrowMarkerPath" d="M 0 0 L 10 5 L 0 10 z"/></marker><marker orient="auto" markerHeight="12" markerWidth="12" markerUnits="userSpaceOnUse" refY="5" refX="4.5" viewBox="0 0 10 10" class="marker flowchart" id="mermaid-svg-1771076898135-kqv7cryj5_flowchart-pointStart"><path style="stroke-width: 1; stroke-dasharray: 1, 0;" class="arrowMarkerPath" d="M 0 5 L 10 10 L 10 0 z"/></marker><marker orient="auto" markerHeight="11" markerWidth="11" markerUnits="userSpaceOnUse" refY="5" refX="11" viewBox="0 0 10 10" class="marker flowchart" id="mermaid-svg-1771076898135-kqv7cryj5_flowchart-circleEnd"><circle style="stroke-width: 1; stroke-dasharray: 1, 0;" class="arrowMarkerPath" r="5" cy="5" cx="5"/></marker><marker orient="auto" markerHeight="11" markerWidth="11" markerUnits="userSpaceOnUse" refY="5" refX="-1" viewBox="0 0 10 10" class="marker flowchart" id="mermaid-svg-1771076898135-kqv7cryj5_flowchart-circleStart"><circle style="stroke-width: 1; stroke-dasharray: 1, 0;" class="arrowMarkerPath" r="5" cy="5" cx="5"/></marker><marker orient="auto" markerHeight="11" markerWidth="11" markerUnits="userSpaceOnUse" refY="5.2" refX="12" viewBox="0 0 11 11" class="marker cross flowchart" id="mermaid-svg-1771076898135-kqv7cryj5_flowchart-crossEnd"><path style="stroke-width: 2; stroke-dasharray: 1, 0;" class="arrowMarkerPath" d="M 1,1 l 9,9 M 10,1 l -9,9"/></marker><marker orient="auto" markerHeight="11" markerWidth="11" markerUnits="userSpaceOnUse" refY="5.2" refX="-1" viewBox="0 0 11 11" class="marker cross flowchart" id="mermaid-svg-1771076898135-kqv7cryj5_flowchart-crossStart"><path style="stroke-width: 2; stroke-dasharray: 1, 0;" class="arrowMarkerPath" d="M 1,1 l 9,9 M 10,1 l -9,9"/></marker><g class="root"><g class="clusters"/><g class="edgePaths"><path marker-end="url(#mermaid-svg-1771076898135-kqv7cryj5_flowchart-pointEnd)" style="fill:none;" class="edge-thickness-normal edge-pattern-solid flowchart-link LS-Raw LE-Parse" id="L-Raw-Parse-0" d="M128.855,34L128.855,38.167C128.855,42.333,128.855,50.667,128.855,58.117C128.855,65.567,128.855,72.133,128.855,75.417L128.855,78.7"/><path marker-end="url(#mermaid-svg-1771076898135-kqv7cryj5_flowchart-pointEnd)" style="fill:none;" class="edge-thickness-normal edge-pattern-solid flowchart-link LS-Parse LE-Classify" id="L-Parse-Classify-0" d="M128.855,118L128.855,122.167C128.855,126.333,128.855,134.667,128.855,144.971C128.855,155.275,128.855,167.55,128.855,173.688L128.855,179.825"/><path marker-end="url(#mermaid-svg-1771076898135-kqv7cryj5_flowchart-pointEnd)" style="fill:none;" class="edge-thickness-normal edge-pattern-solid flowchart-link LS-Classify LE-Remediate" id="L-Classify-Remediate-0" d="M128.855,219.125L128.855,226.146C128.855,233.167,128.855,247.208,136.031,257.986C143.207,268.764,157.559,276.278,164.735,280.035L171.91,283.792"/><path marker-end="url(#mermaid-svg-1771076898135-kqv7cryj5_flowchart-pointEnd)" style="fill:none;" class="edge-thickness-normal edge-pattern-solid flowchart-link LS-Remediate LE-Cookbook" id="L-Remediate-Cookbook-0" d="M209.076,320.25L209.076,324.417C209.076,328.584,209.076,336.917,209.076,344.367C209.076,351.817,209.076,358.384,209.076,361.667L209.076,364.95"/><path marker-end="url(#mermaid-svg-1771076898135-kqv7cryj5_flowchart-pointEnd)" style="fill:none;stroke-width:2px;stroke-dasharray:3;" class="edge-thickness-normal edge-pattern-dotted flowchart-link LS-KB LE-Remediate" id="L-KB-Remediate-0" d="M289.297,236.25L289.297,240.417C289.297,244.584,289.297,252.917,282.121,260.84C274.945,268.764,260.594,276.278,253.418,280.035L246.242,283.792"/><path marker-end="url(#mermaid-svg-1771076898135-kqv7cryj5_flowchart-pointEnd)" style="fill:none;" class="edge-thickness-normal edge-pattern-solid flowchart-link LS-Cookbook LE-Route" id="L-Cookbook-Route-0" d="M209.076,404.25L209.076,408.417C209.076,412.584,209.076,420.917,209.142,428.45C209.208,435.984,209.34,442.718,209.406,446.084L209.472,449.451"/><path marker-end="url(#mermaid-svg-1771076898135-kqv7cryj5_flowchart-pointEnd)" style="fill:none;" class="edge-thickness-normal edge-pattern-solid flowchart-link LS-Route LE-Slack" id="L-Route-Slack-0" d="M174.496,666.451L169.806,677.964C165.116,689.478,155.736,712.505,151.046,728.885C146.355,745.265,146.355,754.998,146.355,759.865L146.355,764.731"/><path marker-end="url(#mermaid-svg-1771076898135-kqv7cryj5_flowchart-pointEnd)" style="fill:none;" class="edge-thickness-normal edge-pattern-solid flowchart-link LS-Route LE-End1" id="L-Route-End1-0" d="M244.657,666.451L249.18,677.964C253.703,689.478,262.75,712.505,267.274,728.885C271.797,745.265,271.797,754.998,271.797,759.865L271.797,764.731"/><path marker-end="url(#mermaid-svg-1771076898135-kqv7cryj5_flowchart-pointEnd)" style="fill:none;" class="edge-thickness-normal edge-pattern-solid flowchart-link LS-Slack LE-JiraRoute" id="L-Slack-JiraRoute-0" d="M146.355,804.031L146.355,808.198C146.355,812.365,146.355,820.698,146.421,828.232C146.488,835.765,146.62,842.499,146.686,845.866L146.752,849.232"/><path marker-end="url(#mermaid-svg-1771076898135-kqv7cryj5_flowchart-pointEnd)" style="fill:none;" class="edge-thickness-normal edge-pattern-solid flowchart-link LS-JiraRoute LE-JIRA" id="L-JiraRoute-JIRA-0" d="M120.669,947.533L112.658,957.564C104.647,967.595,88.624,987.657,80.613,1002.555C72.602,1017.452,72.602,1027.186,72.602,1032.052L72.602,1036.919"/><path marker-end="url(#mermaid-svg-1771076898135-kqv7cryj5_flowchart-pointEnd)" style="fill:none;" class="edge-thickness-normal edge-pattern-solid flowchart-link LS-JiraRoute LE-End2" id="L-JiraRoute-End2-0" d="M173.042,947.533L180.886,957.564C188.731,967.595,204.42,987.657,212.265,1002.555C220.109,1017.452,220.109,1027.186,220.109,1032.052L220.109,1036.919"/><path marker-end="url(#mermaid-svg-1771076898135-kqv7cryj5_flowchart-pointEnd)" style="fill:none;" class="edge-thickness-normal edge-pattern-solid flowchart-link LS-JIRA LE-End3" id="L-JIRA-End3-0" d="M72.602,1076.219L72.602,1080.386C72.602,1084.552,72.602,1092.886,72.602,1100.336C72.602,1107.786,72.602,1114.352,72.602,1117.636L72.602,1120.919"/></g><g class="edgeLabels"><g class="edgeLabel"><g transform="translate(0, 0)" class="label"><rect height="0" width="0" ry="0" rx="0"/><text style=""><tspan class="row" x="0" dy="1em" xml:space="preserve"/></text></g></g><g class="edgeLabel"><g transform="translate(0, 0)" class="label"><rect height="0" width="0" ry="0" rx="0"/><text style=""><tspan class="row" x="0" dy="1em" xml:space="preserve"/></text></g></g><g class="edgeLabel"><g transform="translate(0, 0)" class="label"><rect height="0" width="0" ry="0" rx="0"/><text style=""><tspan class="row" x="0" dy="1em" xml:space="preserve"/></text></g></g><g class="edgeLabel"><g transform="translate(0, 0)" class="label"><rect height="0" width="0" ry="0" rx="0"/><text style=""><tspan class="row" x="0" dy="1em" xml:space="preserve"/></text></g></g><g class="edgeLabel"><g transform="translate(0, 0)" class="label"><rect height="0" width="0" ry="0" rx="0"/><text style=""><tspan class="row" x="0" dy="1em" xml:space="preserve"/></text></g></g><g class="edgeLabel"><g transform="translate(0, 0)" class="label"><rect height="0" width="0" ry="0" rx="0"/><text style=""><tspan class="row" x="0" dy="1em" xml:space="preserve"/></text></g></g><g transform="translate(146.35546875, 735.5314483642578)" class="edgeLabel"><g transform="translate(-12.0859375, -9.5)" class="label"><rect height="19.000255584716797" width="24.162084579467773" ry="0" rx="0"/><text style=""><tspan class="row" x="0" dy="1em" xml:space="preserve">Yes</tspan></text></g></g><g transform="translate(271.796875, 735.5314483642578)" class="edgeLabel"><g transform="translate(-9.60546875, -9.5)" class="label"><rect height="19.000255584716797" width="19.204803466796875" ry="0" rx="0"/><text style=""><tspan class="row" x="0" dy="1em" xml:space="preserve">No</tspan></text></g></g><g class="edgeLabel"><g transform="translate(0, 0)" class="label"><rect height="0" width="0" ry="0" rx="0"/><text style=""><tspan class="row" x="0" dy="1em" xml:space="preserve"/></text></g></g><g transform="translate(72.6015625, 1007.7189483642578)" class="edgeLabel"><g transform="translate(-12.0859375, -9.5)" class="label"><rect height="19.000255584716797" width="24.162084579467773" ry="0" rx="0"/><text style=""><tspan class="row" x="0" dy="1em" xml:space="preserve">Yes</tspan></text></g></g><g transform="translate(220.109375, 1007.7189483642578)" class="edgeLabel"><g transform="translate(-9.60546875, -9.5)" class="label"><rect height="19.000255584716797" width="19.204803466796875" ry="0" rx="0"/><text style=""><tspan class="row" x="0" dy="1em" xml:space="preserve">No</tspan></text></g></g><g class="edgeLabel"><g transform="translate(0, 0)" class="label"><rect height="0" width="0" ry="0" rx="0"/><text style=""><tspan class="row" x="0" dy="1em" xml:space="preserve"/></text></g></g></g><g class="nodes"><g transform="translate(128.85546875, 17)" id="flowchart-Raw-0" class="node default default flowchart-label"><rect height="34" width="77.78125" y="-17" x="-38.890625" ry="0" rx="0" style="" class="basic label-container"/><g transform="translate(0, -9.5)" style="" class="label"><rect/><text style=""><tspan class="row" x="0" dy="1em" xml:space="preserve">Raw logs</tspan></text></g></g><g transform="translate(128.85546875, 101)" id="flowchart-Parse-1" class="node default default flowchart-label"><rect height="34" width="86.15625" y="-17" x="-43.078125" ry="0" rx="0" style="" class="basic label-container"/><g transform="translate(0, -9.5)" style="" class="label"><rect/><text style=""><tspan class="row" x="0" dy="1em" xml:space="preserve">Parse logs</tspan></text></g></g><g transform="translate(128.85546875, 202.1250991821289)" id="flowchart-Classify-3" class="node default default flowchart-label"><rect height="34" width="115.8203125" y="-17" x="-57.91015625" ry="0" rx="0" style="" class="basic label-container"/><g transform="translate(0, -9.5)" style="" class="label"><rect/><text style=""><tspan class="row" x="0" dy="1em" xml:space="preserve">Classify issues</tspan></text></g></g><g transform="translate(209.076171875, 303.2501983642578)" id="flowchart-Remediate-5" class="node default default flowchart-label"><rect height="34" width="144.5078125" y="-17" x="-72.25390625" ry="0" rx="0" style="" class="basic label-container"/><g transform="translate(0, -9.5)" style="" class="label"><rect/><text style=""><tspan class="row" x="0" dy="1em" xml:space="preserve">Find remediations</tspan></text></g></g><g transform="translate(209.076171875, 387.2501983642578)" id="flowchart-Cookbook-7" class="node default default flowchart-label"><rect height="34" width="154.78125" y="-17" x="-77.390625" ry="0" rx="0" style="" class="basic label-container"/><g transform="translate(0, -9.5)" style="" class="label"><rect/><text style=""><tspan class="row" x="0" dy="1em" xml:space="preserve">Generate cookbook</tspan></text></g></g><g transform="translate(289.296875, 202.1250991821289)" id="flowchart-KB-8" class="node default default flowchart-label"><path transform="translate(-52.53125,-34.125101874490625)" d="M 0,11.416734582993751 a 52.53125,11.416734582993751 0,0,0 105.0625 0 a 52.53125,11.416734582993751 0,0,0 -105.0625 0 l 0,45.416734582993755 a 52.53125,11.416734582993751 0,0,0 105.0625 0 l 0,-45.416734582993755" style=""/><g transform="translate(0, -9.5)" style="" class="label"><rect/><text style=""><tspan class="row" x="0" dy="1em" xml:space="preserve">Runbooks KB</tspan></text></g></g><g transform="translate(209.076171875, 577.6408233642578)" id="flowchart-Route-11" class="node default default flowchart-label"><polygon style="" transform="translate(-123.390625,123.390625)" class="label-container" points="123.390625,0 246.78125,-123.390625 123.390625,-246.78125 0,-123.390625"/><g transform="translate(0, -9.5)" style="" class="label"><rect/><text style=""><tspan class="row" x="0" dy="1em" xml:space="preserve">CRITICAL / HIGH / MEDIUM?</tspan></text></g></g><g transform="translate(146.35546875, 787.0314483642578)" id="flowchart-Slack-13" class="node default default flowchart-label"><rect height="34" width="101.0703125" y="-17" x="-50.53515625" ry="0" rx="0" style="" class="basic label-container"/><g transform="translate(0, -9.5)" style="" class="label"><rect/><text style=""><tspan class="row" x="0" dy="1em" xml:space="preserve">Notify Slack</tspan></text></g></g><g transform="translate(271.796875, 787.0314483642578)" id="flowchart-End1-15" class="node default default flowchart-label"><rect height="34" width="49.8125" y="-17" x="-24.90625" ry="17" rx="17" style=""/><g transform="translate(0, -9.5)" style="" class="label"><rect/><text style=""><tspan class="row" x="0" dy="1em" xml:space="preserve">End</tspan></text></g></g><g transform="translate(146.35546875, 913.6251983642578)" id="flowchart-JiraRoute-17" class="node default default flowchart-label"><polygon style="" transform="translate(-59.59375,59.59375)" class="label-container" points="59.59375,0 119.1875,-59.59375 59.59375,-119.1875 0,-59.59375"/><g transform="translate(0, -9.5)" style="" class="label"><rect/><text style=""><tspan class="row" x="0" dy="1em" xml:space="preserve">CRITICAL?</tspan></text></g></g><g transform="translate(72.6015625, 1059.2189483642578)" id="flowchart-JIRA-19" class="node default default flowchart-label"><rect height="34" width="145.203125" y="-17" x="-72.6015625" ry="0" rx="0" style="" class="basic label-container"/><g transform="translate(0, -9.5)" style="" class="label"><rect/><text style=""><tspan class="row" x="0" dy="1em" xml:space="preserve">Create JIRA ticket</tspan></text></g></g><g transform="translate(220.109375, 1059.2189483642578)" id="flowchart-End2-21" class="node default default flowchart-label"><rect height="34" width="49.8125" y="-17" x="-24.90625" ry="17" rx="17" style=""/><g transform="translate(0, -9.5)" style="" class="label"><rect/><text style=""><tspan class="row" x="0" dy="1em" xml:space="preserve">End</tspan></text></g></g><g transform="translate(72.6015625, 1143.2189483642578)" id="flowchart-End3-23" class="node default default flowchart-label"><rect height="34" width="49.8125" y="-17" x="-24.90625" ry="17" rx="17" style=""/><g transform="translate(0, -9.5)" style="" class="label"><rect/><text style=""><tspan class="row" x="0" dy="1em" xml:space="preserve">End</tspan></text></g></g></g></g></g></svg>